<?xml version="1.0" encoding="utf-8"?>
<!-- Generator: Adobe Illustrator 19.0.0, SVG Export Plug-In . SVG Version: 6.00 Build 0)  -->
<svg version="1.1" id="Capa_1" xmlns="http://www.w3.org/2000/svg" xmlns:xlink="http://www.w3.org/1999/xlink" x="0px" y="0px"
	 viewBox="-43 245 512 512" style="enable-background:new -43 245 512 512;" xml:space="preserve">
<style type="text/css">
	.st0{fill:#00BCD4;}
</style>
<g>
	<g id="XMLID_1_">
		<g>
			<path class="st0" d="M469,341v320c0,26.4-9.4,49-28.2,67.8C422.1,747.6,399.5,757,373,757h-74.7c-3.6,0-6.3-0.1-8.2-0.3
				c-1.9-0.2-4.1-0.8-6.5-1.7c-2.5-0.9-4.2-2.5-5.3-4.8c-1.1-2.3-1.7-5.4-1.7-9.2v-79.7c0-21.6-5.8-37.3-17.3-47.3
				c12.7-1.3,24.1-3.3,34.2-6c10.1-2.7,20.6-7,31.3-13c10.8-6,19.8-13.4,27-22.2c7.2-8.8,13.1-20.5,17.7-35
				c4.5-14.5,6.8-31.3,6.8-50.2c0-26.9-8.8-49.8-26.3-68.7c8.2-20.2,7.3-42.9-2.7-68c-6.2-2-15.2-0.8-27,3.7s-22,9.3-30.7,14.7
				l-12.7,8c-20.7-5.8-42-8.7-64-8.7c-22,0-43.3,2.9-64,8.7c-3.6-2.5-8.3-5.5-14.2-9c-5.9-3.6-15.2-7.8-27.8-12.8
				c-12.7-5-22.2-6.5-28.7-4.5c-9.8,25.1-10.6,47.8-2.3,68c-17.6,18.9-26.3,41.8-26.3,68.7c0,18.9,2.3,35.6,6.8,50
				c4.5,14.4,10.4,26.1,17.5,35c7.1,8.9,16.1,16.3,26.8,22.3c10.8,6,21.2,10.3,31.3,13s21.5,4.7,34.2,6c-8.9,8-14.3,19.5-16.3,34.3
				c-4.7,2.2-9.7,3.9-15,5c-5.3,1.1-11.7,1.7-19,1.7c-7.3,0-14.6-2.4-21.8-7.2c-7.2-4.8-13.4-11.7-18.5-20.8
				c-4.2-7.1-9.6-12.9-16.2-17.3c-6.6-4.4-12.1-7.1-16.5-8l-6.7-1c-4.7,0-7.9,0.5-9.7,1.5s-2.3,2.3-1.7,3.8c0.7,1.5,1.7,3.1,3,4.7
				c1.3,1.6,2.8,2.9,4.3,4l2.3,1.7c4.9,2.2,9.7,6.5,14.5,12.7s8.3,11.9,10.5,17l3.3,7.7c2.9,8.4,7.8,15.3,14.7,20.5
				c6.9,5.2,14.3,8.5,22.3,10c8,1.5,15.7,2.2,23.2,2.3c7.4,0.1,13.6-0.3,18.5-1.2l7.7-1.3c0,8.4,0.1,19.9,0.2,34.3s0.2,22,0.2,22.7
				c0,4.9-1.2,8.6-3.7,11.2c-2.4,2.5-4.9,4-7.3,4.3c-2.4,0.3-6.1,0.5-11,0.5H53c-26.4,0-49.1-9.4-67.8-28.2
				C-33.6,710.1-43,687.5-43,661V341c0-26.4,9.4-49.1,28.2-67.8C3.9,254.4,26.6,245,53,245h320c26.5,0,49,9.4,67.8,28.2
				C459.6,291.9,469,314.6,469,341z"/>
		</g>
		<g>
		</g>
	</g>
</g>
</svg>
