<?xml version="1.0" encoding="utf-8"?>
<!-- Generator: Adobe Illustrator 19.0.0, SVG Export Plug-In . SVG Version: 6.00 Build 0)  -->
<svg version="1.1" id="Capa_1" xmlns="http://www.w3.org/2000/svg" xmlns:xlink="http://www.w3.org/1999/xlink" x="0px" y="0px"
	 viewBox="-43 245 512 512" style="enable-background:new -43 245 512 512;" xml:space="preserve">
<style type="text/css">
	.st0{fill:#00BCD4;}
</style>
<g>
	<g id="XMLID_1_">
		<g>
			<path class="st0" d="M469,281.7v438.6c0,20.3-16.9,36.7-37.8,36.7H-5.2c-20.9,0-37.8-16.4-37.8-36.7V281.7
				c0-20.3,16.9-36.7,37.8-36.7h436.4C452.1,245,469,261.4,469,281.7z M391.1,673.6V541c0-71-38.2-104.1-89.1-104.1
				c-41.1,0-59.4,22.5-69.7,38.2v-32.8H155c1,21.7,0,231.2,0,231.2h77.3V544.5c0-6.9,0.5-13.8,2.6-18.7
				c5.6-13.8,18.3-28.1,39.7-28.1c28,0,39.2,21.2,39.2,52.3v123.7H391.1z M112.2,673.6V442.4H34.9v231.2H112.2z M73.6,410.8
				c27,0,43.7-17.7,43.7-40C116.8,348.2,100.5,331,74,331c-26.5,0-43.8,17.3-43.8,39.9c0,22.2,16.8,40,42.8,40H73.6z"/>
			<path d="M232.3,475.2v0.7h-0.5C232,475.7,232.1,475.4,232.3,475.2z"/>
		</g>
		<g>
		</g>
	</g>
</g>
</svg>
